<svg height="512" viewBox="0 0 128 128" width="512" xmlns="http://www.w3.org/2000/svg"><g><g><path d="m72.917 78.5h-17.834l-6 24.5h29.834z" fill="#544ec7"/><circle cx="64" cy="56.069" fill="#f1f3f8" r="37.552"/><path d="m64 21.518v69.1a34.552 34.552 0 1 0 0-69.1z" fill="#c1d3ed"/><circle cx="64" cy="56.069" fill="#ff8393" r="30.337"/><g fill="#ea1c81"><path d="m66.761 53.308 18.691-18.69a30.244 30.244 0 0 0 -21.452-8.886v26.432z"/><path d="m66.761 58.831 18.691 18.69a30.241 30.241 0 0 0 8.885-21.452h-26.432z"/><path d="m61.239 58.831-18.691 18.69a30.244 30.244 0 0 0 21.452 8.886v-26.432z"/><path d="m61.239 53.308-18.691-18.69a30.241 30.241 0 0 0 -8.885 21.451h26.437z"/></g><path d="m84.811 103h-41.622l-3 6.482h47.622z" fill="#b373f0"/><path d="m64 32.525 6.7-13.4a37.22 37.22 0 0 0 -13.4 0z" fill="#01ebcd"/><circle cx="64" cy="56.069" fill="#f1f3f8" r="3.905"/></g><g><path d="m103.3 56.069a39.209 39.209 0 0 0 -46.1-38.69 1.725 1.725 0 0 0 -.36.06 39.127 39.127 0 0 0 -12.587 4.644 1.75 1.75 0 0 0 1.761 3.024 35.6 35.6 0 0 1 10.324-4l6.1 12.2a1.75 1.75 0 0 0 3.13 0l2.748-5.5a28.416 28.416 0 0 1 14.626 6.844l-16.381 16.383a5.506 5.506 0 0 0 -.811-.339v-11.695a1.75 1.75 0 0 0 -3.5 0v11.7a5.506 5.506 0 0 0 -.811.339l-16.387-16.393a28.611 28.611 0 0 1 10.324-5.841 1.75 1.75 0 1 0 -1.054-3.337 32.092 32.092 0 0 0 9.678 62.689 1.751 1.751 0 0 0 1.75-1.75v-24.963a5.616 5.616 0 0 0 .811-.339l16.387 16.387a28.5 28.5 0 0 1 -12.182 6.36 1.75 1.75 0 0 0 .411 3.451 1.73 1.73 0 0 0 .414-.05 32.089 32.089 0 0 0 15.124-53.841c-.01-.01-.016-.022-.026-.032s-.024-.018-.036-.029a31.917 31.917 0 0 0 -16.7-8.81l1.715-3.441a35.795 35.795 0 1 1 -35.56 12.519 1.75 1.75 0 1 0 -2.725-2.2 39.29 39.29 0 0 0 41.487 62.411l1.816 7.42h-3.686a1.75 1.75 0 0 0 0 3.5h10.693l1.38 2.982h-42.146l1.38-2.982h16.932a1.75 1.75 0 1 0 0-3.5h-9.925l.863-3.526a1.75 1.75 0 0 0 -3.4-.833l-1.067 4.359h-4.522a1.75 1.75 0 0 0 -1.588 1.015l-3 6.483a1.75 1.75 0 0 0 1.588 2.484h47.624a1.75 1.75 0 0 0 1.588-2.484l-3-6.483a1.75 1.75 0 0 0 -1.588-1.015h-4.522l-2.09-8.543a39.359 39.359 0 0 0 25.1-36.638zm-10.774-1.75h-18.026a1.75 1.75 0 0 0 0 3.5h18.013a28.489 28.489 0 0 1 -7.093 17.2l-16.384-16.389a5.605 5.605 0 0 0 0-5.121l16.379-16.38a28.554 28.554 0 0 1 7.113 17.19zm-57.046 0a28.476 28.476 0 0 1 7.091-17.2l16.393 16.39a5.67 5.67 0 0 0 -.339.81zm26.363 1.75a2.155 2.155 0 1 1 2.157 2.156 2.158 2.158 0 0 1 -2.155-2.156zm-26.374 1.75h23.156a5.731 5.731 0 0 0 .339.811l-13.322 13.324a1.749 1.749 0 1 0 2.474 2.474l13.323-13.323a5.616 5.616 0 0 0 .811.339v23.156a28.623 28.623 0 0 1 -26.779-26.781zm28.531-29.207-4.049-8.1a34.317 34.317 0 0 1 8.1-.008z"/><path d="m39.253 29.575a1.746 1.746 0 0 0 1.154-.434q.38-.334.768-.655a1.75 1.75 0 1 0 -2.232-2.7q-.426.352-.844.719a1.75 1.75 0 0 0 1.154 3.066z"/><path d="m67.659 104.75a1.75 1.75 0 0 0 0-3.5h-.9a1.75 1.75 0 0 0 0 3.5z"/></g></g></svg>